<svg width="50" height="60" viewBox="0 0 50 60" fill="none" xmlns="http://www.w3.org/2000/svg">
<rect y="5" width="50" height="50" rx="25" fill="#E8794A"/>
<mask id="path-2-outside-1_39_79" maskUnits="userSpaceOnUse" x="12" y="13" width="26" height="35" fill="black">
<rect fill="white" x="12" y="13" width="26" height="35"/>
<path d="M28.92 15.56C31.4267 15.56 33.1867 15.96 34.2 16.76C35.2133 17.5333 35.72 18.6667 35.72 20.16C35.72 21.7067 35.12 22.8667 33.92 23.64C32.7467 24.3867 30.92 24.76 28.44 24.76C27.6133 24.76 26.68 24.7467 25.64 24.72C24.6 24.6667 23.5067 24.5867 22.36 24.48L22.56 24.16C22.8267 24.7467 22.96 25.3733 22.96 26.04C22.96 26.7067 22.8533 27.3467 22.64 27.96L22 27.68C22.5867 27.52 23.2933 27.3867 24.12 27.28C24.9733 27.1467 25.8533 27.04 26.76 26.96C27.6667 26.88 28.4933 26.84 29.24 26.84C31.2667 26.84 32.68 27.1467 33.48 27.76C34.3067 28.3733 34.72 29.1333 34.72 30.04C34.72 31.0267 34.2533 31.8667 33.32 32.56C32.4133 33.2267 30.8267 33.56 28.56 33.56C27.5733 33.56 26.5067 33.5067 25.36 33.4C24.2133 33.2933 23.0533 33.1467 21.88 32.96L22.52 32.48C22.76 32.88 22.9067 33.36 22.96 33.92C23.04 34.48 23.0267 35.04 22.92 35.6C22.8133 36.1333 22.6133 36.6133 22.32 37.04V36.64C23.0133 36.4267 23.8 36.2533 24.68 36.12C25.56 35.96 26.4667 35.84 27.4 35.76C28.3333 35.68 29.2 35.64 30 35.64C31.8933 35.64 33.3067 35.96 34.24 36.6C35.1733 37.24 35.64 38.28 35.64 39.72C35.64 40.6533 35.4533 41.4267 35.08 42.04C34.7333 42.6533 34.12 43.1867 33.24 43.64C32.5467 43.9867 31.6667 44.28 30.6 44.52C29.56 44.76 28.44 44.9333 27.24 45.04C26.0667 45.1733 24.9067 45.24 23.76 45.24C21.6533 45.24 19.9067 44.9867 18.52 44.48C17.16 43.9467 16.1733 43.1867 15.56 42.2C15 41.24 14.6 39.9867 14.36 38.44C14.12 36.8933 14 34.7733 14 32.08C14 29.52 14.0933 27.4133 14.28 25.76C14.4667 24.08 14.7333 22.72 15.08 21.68C15.4267 20.64 15.8267 19.8133 16.28 19.2C16.9733 18.2667 17.96 17.5333 19.24 17C20.52 16.4667 22 16.0933 23.68 15.88C25.36 15.6667 27.1067 15.56 28.92 15.56Z"/>
</mask>
<path d="M34.2 16.76L32.9607 18.3298L32.9736 18.3399L32.9867 18.3499L34.2 16.76ZM33.92 23.64L34.9938 25.3273L35.0034 25.3211L33.92 23.64ZM25.64 24.72L25.5376 26.7174L25.5631 26.7187L25.5887 26.7193L25.64 24.72ZM22.36 24.48L20.664 23.42L18.9447 26.1709L22.1748 26.4714L22.36 24.48ZM22.56 24.16L24.3807 23.3324L22.8388 19.9402L20.864 23.1L22.56 24.16ZM22.64 27.96L21.8384 29.7923L23.8188 30.6588L24.529 28.617L22.64 27.96ZM22 27.68L21.4738 25.7505L16.0074 27.2413L21.1984 29.5123L22 27.68ZM24.12 27.28L24.3759 29.2636L24.4024 29.2601L24.4288 29.256L24.12 27.28ZM26.76 26.96L26.5842 24.9677H26.5842L26.76 26.96ZM33.48 27.76L32.2631 29.3472L32.2756 29.3568L32.2883 29.3662L33.48 27.76ZM33.32 32.56L34.5048 34.1713L34.5126 34.1655L33.32 32.56ZM25.36 33.4L25.5452 31.4086H25.5452L25.36 33.4ZM21.88 32.96L20.68 31.36L16.9023 34.1932L21.5658 34.9352L21.88 32.96ZM22.52 32.48L24.235 31.451L23.0941 29.5495L21.32 30.88L22.52 32.48ZM22.96 33.92L20.969 34.1096L20.9735 34.1564L20.9801 34.2028L22.96 33.92ZM22.92 35.6L24.8812 35.9922L24.883 35.9832L24.8847 35.9742L22.92 35.6ZM22.32 37.04H20.32V43.4794L23.9681 38.1731L22.32 37.04ZM22.32 36.64L21.7318 34.7284L20.32 35.1628V36.64H22.32ZM24.68 36.12L24.9796 38.0974L25.0088 38.093L25.0378 38.0877L24.68 36.12ZM27.4 35.76L27.5708 37.7527H27.5708L27.4 35.76ZM34.24 36.6L33.1089 38.2495V38.2495L34.24 36.6ZM35.08 42.04L33.3716 41.0001L33.3548 41.0277L33.3389 41.0559L35.08 42.04ZM33.24 43.64L34.1344 45.4289L34.1452 45.4235L34.1559 45.4179L33.24 43.64ZM30.6 44.52L30.161 42.5688L30.1503 42.5712L30.6 44.52ZM27.24 45.04L27.0629 43.0479L27.0385 43.05L27.0142 43.0528L27.24 45.04ZM18.52 44.48L17.7898 46.3419L17.8116 46.3505L17.8336 46.3585L18.52 44.48ZM15.56 42.2L13.8324 43.2077L13.8466 43.232L13.8614 43.2559L15.56 42.2ZM14.36 38.44L12.3837 38.7467L14.36 38.44ZM14.28 25.76L16.2674 25.9844L16.2678 25.9809L14.28 25.76ZM15.08 21.68L16.9774 22.3125L16.9774 22.3125L15.08 21.68ZM16.28 19.2L14.6745 18.0073L14.6716 18.0112L16.28 19.2ZM19.24 17L18.4708 15.1538H18.4708L19.24 17ZM23.68 15.88L23.9319 17.8641V17.8641L23.68 15.88ZM28.92 15.56V17.56C31.3384 17.56 32.506 17.9708 32.9607 18.3298L34.2 16.76L35.4393 15.1902C33.8673 13.9492 31.5149 13.56 28.92 13.56V15.56ZM34.2 16.76L32.9867 18.3499C33.4155 18.6772 33.72 19.1695 33.72 20.16H35.72H37.72C37.72 18.1638 37.0111 16.3895 35.4133 15.1701L34.2 16.76ZM35.72 20.16H33.72C33.72 21.0945 33.4106 21.5889 32.8366 21.9589L33.92 23.64L35.0034 25.3211C36.8294 24.1444 37.72 22.3188 37.72 20.16H35.72ZM33.92 23.64L32.8462 21.9527C32.1583 22.3905 30.7983 22.76 28.44 22.76V24.76V26.76C31.0417 26.76 33.335 26.3829 34.9938 25.3273L33.92 23.64ZM28.44 24.76V22.76C27.6341 22.76 26.7183 22.747 25.6913 22.7207L25.64 24.72L25.5887 26.7193C26.6417 26.7463 27.5926 26.76 28.44 26.76V24.76ZM25.64 24.72L25.7424 22.7226C24.7328 22.6708 23.6672 22.593 22.5452 22.4886L22.36 24.48L22.1748 26.4714C23.3461 26.5804 24.4672 26.6625 25.5376 26.7174L25.64 24.72ZM22.36 24.48L24.056 25.54L24.256 25.22L22.56 24.16L20.864 23.1L20.664 23.42L22.36 24.48ZM22.56 24.16L20.7393 24.9876C20.8837 25.3053 20.96 25.6487 20.96 26.04H22.96H24.96C24.96 25.0979 24.7697 24.188 24.3807 23.3324L22.56 24.16ZM22.96 26.04H20.96C20.96 26.489 20.8889 26.9065 20.751 27.303L22.64 27.96L24.529 28.617C24.8178 27.7868 24.96 26.9243 24.96 26.04H22.96ZM22.64 27.96L23.4416 26.1277L22.8016 25.8477L22 27.68L21.1984 29.5123L21.8384 29.7923L22.64 27.96ZM22 27.68L22.5262 29.6095C22.9985 29.4807 23.6096 29.3624 24.3759 29.2636L24.12 27.28L23.8641 25.2964C22.977 25.4109 22.1749 25.5593 21.4738 25.7505L22 27.68ZM24.12 27.28L24.4288 29.256C25.2357 29.1299 26.0712 29.0285 26.9358 28.9523L26.76 26.96L26.5842 24.9677C25.6354 25.0515 24.711 25.1634 23.8112 25.304L24.12 27.28ZM26.76 26.96L26.9358 28.9523C27.7961 28.8763 28.563 28.84 29.24 28.84V26.84V24.84C28.4236 24.84 27.5372 24.8837 26.5842 24.9677L26.76 26.96ZM29.24 26.84V28.84C31.1985 28.84 32.0228 29.163 32.2631 29.3472L33.48 27.76L34.6969 26.1728C33.3372 25.1304 31.3348 24.84 29.24 24.84V26.84ZM33.48 27.76L32.2883 29.3662C32.6853 29.6608 32.72 29.8586 32.72 30.04H34.72H36.72C36.72 28.408 35.928 27.0859 34.6717 26.1538L33.48 27.76ZM34.72 30.04H32.72C32.72 30.2761 32.6554 30.5623 32.1274 30.9545L33.32 32.56L34.5126 34.1655C35.8513 33.1711 36.72 31.7772 36.72 30.04H34.72ZM33.32 32.56L32.1352 30.9487C31.7784 31.211 30.76 31.56 28.56 31.56V33.56V35.56C30.8934 35.56 33.0482 35.2423 34.5048 34.1713L33.32 32.56ZM28.56 33.56V31.56C27.6444 31.56 26.6402 31.5105 25.5452 31.4086L25.36 33.4L25.1748 35.3914C26.3731 35.5029 27.5023 35.56 28.56 35.56V33.56ZM25.36 33.4L25.5452 31.4086C24.4431 31.3061 23.3261 31.1649 22.1942 30.9848L21.88 32.96L21.5658 34.9352C22.7806 35.1284 23.9836 35.2806 25.1748 35.3914L25.36 33.4ZM21.88 32.96L23.08 34.56L23.72 34.08L22.52 32.48L21.32 30.88L20.68 31.36L21.88 32.96ZM22.52 32.48L20.805 33.509C20.8632 33.606 20.9382 33.7863 20.969 34.1096L22.96 33.92L24.951 33.7304C24.8751 32.9337 24.6568 32.154 24.235 31.451L22.52 32.48ZM22.96 33.92L20.9801 34.2028C21.0287 34.5428 21.021 34.8807 20.9553 35.2258L22.92 35.6L24.8847 35.9742C25.0323 35.1992 25.0513 34.4172 24.9399 33.6372L22.96 33.92ZM22.92 35.6L20.9588 35.2078C20.9026 35.4892 20.8041 35.7147 20.6719 35.9069L22.32 37.04L23.9681 38.1731C24.4226 37.512 24.7241 36.7775 24.8812 35.9922L22.92 35.6ZM22.32 37.04H24.32V36.64H22.32H20.32V37.04H22.32ZM22.32 36.64L22.9082 38.5516C23.4887 38.3729 24.1763 38.2191 24.9796 38.0974L24.68 36.12L24.3804 34.1426C23.4237 34.2875 22.5379 34.4804 21.7318 34.7284L22.32 36.64ZM24.68 36.12L25.0378 38.0877C25.853 37.9395 26.6972 37.8276 27.5708 37.7527L27.4 35.76L27.2292 33.7673C26.2361 33.8524 25.267 33.9805 24.3222 34.1523L24.68 36.12ZM27.4 35.76L27.5708 37.7527C28.4566 37.6768 29.2656 37.64 30 37.64V35.64V33.64C29.1344 33.64 28.21 33.6832 27.2292 33.7673L27.4 35.76ZM30 35.64V37.64C31.7341 37.64 32.6652 37.9452 33.1089 38.2495L34.24 36.6L35.3711 34.9505C33.9481 33.9748 32.0526 33.64 30 33.64V35.64ZM34.24 36.6L33.1089 38.2495C33.3511 38.4155 33.64 38.7381 33.64 39.72H35.64H37.64C37.64 37.8219 36.9956 36.0645 35.3711 34.9505L34.24 36.6ZM35.64 39.72H33.64C33.64 40.3943 33.505 40.7809 33.3716 41.0001L35.08 42.04L36.7884 43.0799C37.4016 42.0724 37.64 40.9124 37.64 39.72H35.64ZM35.08 42.04L33.3389 41.0559C33.2471 41.2183 32.9923 41.5178 32.3241 41.8621L33.24 43.64L34.1559 45.4179C35.2477 44.8555 36.2196 44.0883 36.8211 43.0241L35.08 42.04ZM33.24 43.64L32.3456 41.8511C31.8425 42.1027 31.1288 42.351 30.161 42.5688L30.6 44.52L31.039 46.4712C32.2045 46.209 33.2509 45.8706 34.1344 45.4289L33.24 43.64ZM30.6 44.52L30.1503 42.5712C29.2106 42.7881 28.1826 42.9483 27.0629 43.0479L27.24 45.04L27.4171 47.0321C28.6974 46.9183 29.9094 46.7319 31.0497 46.4688L30.6 44.52ZM27.24 45.04L27.0142 43.0528C25.9136 43.1779 24.829 43.24 23.76 43.24V45.24V47.24C24.9843 47.24 26.2197 47.1688 27.4658 47.0272L27.24 45.04ZM23.76 45.24V43.24C21.7958 43.24 20.3009 43.0014 19.2064 42.6015L18.52 44.48L17.8336 46.3585C19.5124 46.9719 21.5109 47.24 23.76 47.24V45.24ZM18.52 44.48L19.2502 42.6181C18.1868 42.201 17.5915 41.6797 17.2586 41.1441L15.56 42.2L13.8614 43.2559C14.7552 44.6937 16.1332 45.6923 17.7898 46.3419L18.52 44.48ZM15.56 42.2L17.2876 41.1923C16.8937 40.5172 16.5525 39.5261 16.3363 38.1333L14.36 38.44L12.3837 38.7467C12.6475 40.4472 13.1063 41.9628 13.8324 43.2077L15.56 42.2ZM14.36 38.44L16.3363 38.1333C16.1194 36.735 16 34.7325 16 32.08H14H12C12 34.8141 12.1206 37.0517 12.3837 38.7467L14.36 38.44ZM14 32.08H16C16 29.5597 16.0923 27.5349 16.2674 25.9844L14.28 25.76L12.2926 25.5356C12.0944 27.2918 12 29.4803 12 32.08H14ZM14.28 25.76L16.2678 25.9809C16.4463 24.3743 16.6924 23.1675 16.9774 22.3125L15.08 21.68L13.1826 21.0475C12.7743 22.2725 12.4871 23.7857 12.2922 25.5391L14.28 25.76ZM15.08 21.68L16.9774 22.3125C17.284 21.3925 17.6016 20.7768 17.8884 20.3888L16.28 19.2L14.6716 18.0112C14.0517 18.8499 13.5693 19.8875 13.1826 21.0475L15.08 21.68ZM16.28 19.2L17.8855 20.3926C18.3259 19.7998 18.9973 19.2678 20.0092 18.8462L19.24 17L18.4708 15.1538C16.9227 15.7989 15.6208 16.7335 14.6745 18.0073L16.28 19.2ZM19.24 17L20.0092 18.8462C21.092 18.395 22.3921 18.0596 23.9319 17.8641L23.68 15.88L23.4281 13.8959C21.6079 14.1271 19.948 14.5383 18.4708 15.1538L19.24 17ZM23.68 15.88L23.9319 17.8641C25.5228 17.6621 27.185 17.56 28.92 17.56V15.56V13.56C27.0283 13.56 25.1972 13.6713 23.4281 13.8959L23.68 15.88Z" fill="#FBF7F0" mask="url(#path-2-outside-1_39_79)"/>
</svg>
